<mxfile host="app.diagrams.net" modified="2023-11-26T13:55:19.695Z" agent="Mozilla/5.0 (Windows NT 10.0; Win64; x64) AppleWebKit/537.36 (KHTML, like Gecko) Chrome/118.0.0.0 Safari/537.36 OPR/104.0.0.0 (Edition Yx GX)" etag="nx0udd3ivJoHx8n1nekH" version="22.1.4" type="device">
  <diagram id="5P1_b3g_9JLCjwPKlb2h" name="Страница 1">
    <mxGraphModel dx="1143" dy="1548" grid="0" gridSize="10" guides="1" tooltips="1" connect="1" arrows="1" fold="1" page="1" pageScale="1" pageWidth="1100" pageHeight="850" math="0" shadow="0">
      <root>
        <mxCell id="0" />
        <mxCell id="1" parent="0" />
        <mxCell id="jf6-zvFy1AMg0RBCMX0a-2" value="Магазин" style="rounded=0;whiteSpace=wrap;html=1;shadow=1;" parent="1" vertex="1">
          <mxGeometry x="260" y="-246" width="120" height="60" as="geometry" />
        </mxCell>
        <mxCell id="jf6-zvFy1AMg0RBCMX0a-3" value="" style="endArrow=classic;html=1;rounded=0;exitX=1;exitY=0.5;exitDx=0;exitDy=0;entryX=0;entryY=0.5;entryDx=0;entryDy=0;" parent="1" source="jf6-zvFy1AMg0RBCMX0a-2" target="jf6-zvFy1AMg0RBCMX0a-6" edge="1">
          <mxGeometry width="50" height="50" relative="1" as="geometry">
            <mxPoint x="530" y="-206" as="sourcePoint" />
            <mxPoint x="510" y="-216" as="targetPoint" />
          </mxGeometry>
        </mxCell>
        <mxCell id="jf6-zvFy1AMg0RBCMX0a-4" value="Прайс-лист&lt;br&gt;на материалы" style="edgeLabel;html=1;align=center;verticalAlign=middle;resizable=0;points=[];" parent="jf6-zvFy1AMg0RBCMX0a-3" vertex="1" connectable="0">
          <mxGeometry x="-0.2706" y="-3" relative="1" as="geometry">
            <mxPoint x="3" y="-23" as="offset" />
          </mxGeometry>
        </mxCell>
        <mxCell id="jf6-zvFy1AMg0RBCMX0a-5" value="Архитектор" style="rounded=0;whiteSpace=wrap;html=1;shadow=1;" parent="1" vertex="1">
          <mxGeometry x="690" y="-376" width="120" height="60" as="geometry" />
        </mxCell>
        <mxCell id="jf6-zvFy1AMg0RBCMX0a-6" value="Постройка дома" style="ellipse;whiteSpace=wrap;html=1;aspect=fixed;shadow=1;" parent="1" vertex="1">
          <mxGeometry x="510" y="-286" width="140" height="140" as="geometry" />
        </mxCell>
        <mxCell id="jf6-zvFy1AMg0RBCMX0a-7" value="" style="endArrow=classic;html=1;rounded=0;entryX=0.5;entryY=0;entryDx=0;entryDy=0;exitX=0;exitY=0.5;exitDx=0;exitDy=0;shadow=0;" parent="1" source="jf6-zvFy1AMg0RBCMX0a-5" target="jf6-zvFy1AMg0RBCMX0a-6" edge="1">
          <mxGeometry width="50" height="50" relative="1" as="geometry">
            <mxPoint x="480" y="-216" as="sourcePoint" />
            <mxPoint x="530" y="-266" as="targetPoint" />
            <Array as="points">
              <mxPoint x="580" y="-346" />
            </Array>
          </mxGeometry>
        </mxCell>
        <mxCell id="jf6-zvFy1AMg0RBCMX0a-8" value="Проект дома" style="edgeLabel;html=1;align=center;verticalAlign=middle;resizable=0;points=[];" parent="jf6-zvFy1AMg0RBCMX0a-7" vertex="1" connectable="0">
          <mxGeometry x="-0.0401" y="1" relative="1" as="geometry">
            <mxPoint x="1" y="-11" as="offset" />
          </mxGeometry>
        </mxCell>
        <mxCell id="jf6-zvFy1AMg0RBCMX0a-9" value="Заказчик" style="rounded=0;whiteSpace=wrap;html=1;shadow=1;" parent="1" vertex="1">
          <mxGeometry x="690" y="-126" width="120" height="60" as="geometry" />
        </mxCell>
        <mxCell id="jf6-zvFy1AMg0RBCMX0a-10" value="" style="endArrow=classic;html=1;rounded=0;shadow=0;exitX=1;exitY=0.5;exitDx=0;exitDy=0;entryX=0.5;entryY=0;entryDx=0;entryDy=0;" parent="1" source="jf6-zvFy1AMg0RBCMX0a-6" target="jf6-zvFy1AMg0RBCMX0a-9" edge="1">
          <mxGeometry width="50" height="50" relative="1" as="geometry">
            <mxPoint x="640" y="54" as="sourcePoint" />
            <mxPoint x="690" y="4" as="targetPoint" />
            <Array as="points">
              <mxPoint x="750" y="-216" />
            </Array>
          </mxGeometry>
        </mxCell>
        <mxCell id="jf6-zvFy1AMg0RBCMX0a-11" value="Акт приемки" style="edgeLabel;html=1;align=center;verticalAlign=middle;resizable=0;points=[];" parent="jf6-zvFy1AMg0RBCMX0a-10" vertex="1" connectable="0">
          <mxGeometry x="-0.3356" y="4" relative="1" as="geometry">
            <mxPoint y="-6" as="offset" />
          </mxGeometry>
        </mxCell>
        <mxCell id="jf6-zvFy1AMg0RBCMX0a-12" value="Согласование проекта" style="ellipse;whiteSpace=wrap;html=1;aspect=fixed;shadow=1;" parent="1" vertex="1">
          <mxGeometry x="255" y="262" width="100" height="100" as="geometry" />
        </mxCell>
        <mxCell id="jf6-zvFy1AMg0RBCMX0a-13" value="" style="endArrow=classic;html=1;rounded=0;shadow=0;entryX=0.5;entryY=0;entryDx=0;entryDy=0;" parent="1" target="jf6-zvFy1AMg0RBCMX0a-12" edge="1">
          <mxGeometry width="50" height="50" relative="1" as="geometry">
            <mxPoint x="305" y="182" as="sourcePoint" />
            <mxPoint x="555" y="322" as="targetPoint" />
          </mxGeometry>
        </mxCell>
        <mxCell id="jf6-zvFy1AMg0RBCMX0a-18" value="Проект дома" style="edgeLabel;html=1;align=center;verticalAlign=middle;resizable=0;points=[];" parent="jf6-zvFy1AMg0RBCMX0a-13" vertex="1" connectable="0">
          <mxGeometry x="-0.5175" y="1" relative="1" as="geometry">
            <mxPoint x="39" y="-12" as="offset" />
          </mxGeometry>
        </mxCell>
        <mxCell id="jf6-zvFy1AMg0RBCMX0a-14" value="Выполнение строительных работ" style="ellipse;whiteSpace=wrap;html=1;aspect=fixed;shadow=1;" parent="1" vertex="1">
          <mxGeometry x="485" y="392" width="100" height="100" as="geometry" />
        </mxCell>
        <mxCell id="jf6-zvFy1AMg0RBCMX0a-15" value="Сдача работ" style="ellipse;whiteSpace=wrap;html=1;aspect=fixed;shadow=1;" parent="1" vertex="1">
          <mxGeometry x="665" y="522" width="100" height="100" as="geometry" />
        </mxCell>
        <mxCell id="jf6-zvFy1AMg0RBCMX0a-16" value="" style="endArrow=classic;html=1;rounded=0;shadow=0;exitX=1;exitY=1;exitDx=0;exitDy=0;entryX=0.5;entryY=0;entryDx=0;entryDy=0;" parent="1" source="jf6-zvFy1AMg0RBCMX0a-12" target="jf6-zvFy1AMg0RBCMX0a-14" edge="1">
          <mxGeometry width="50" height="50" relative="1" as="geometry">
            <mxPoint x="285" y="742" as="sourcePoint" />
            <mxPoint x="335" y="692" as="targetPoint" />
            <Array as="points">
              <mxPoint x="455" y="347" />
              <mxPoint x="535" y="347" />
            </Array>
          </mxGeometry>
        </mxCell>
        <mxCell id="jf6-zvFy1AMg0RBCMX0a-17" value="Утвержденный&lt;br&gt;проект" style="edgeLabel;html=1;align=center;verticalAlign=middle;resizable=0;points=[];" parent="jf6-zvFy1AMg0RBCMX0a-16" vertex="1" connectable="0">
          <mxGeometry x="-0.4751" y="1" relative="1" as="geometry">
            <mxPoint y="-19" as="offset" />
          </mxGeometry>
        </mxCell>
        <mxCell id="jf6-zvFy1AMg0RBCMX0a-19" value="" style="endArrow=classic;html=1;rounded=0;shadow=0;exitX=1;exitY=0.5;exitDx=0;exitDy=0;entryX=0;entryY=0.5;entryDx=0;entryDy=0;" parent="1" source="jf6-zvFy1AMg0RBCMX0a-14" target="jf6-zvFy1AMg0RBCMX0a-15" edge="1">
          <mxGeometry width="50" height="50" relative="1" as="geometry">
            <mxPoint x="565" y="642" as="sourcePoint" />
            <mxPoint x="615" y="592" as="targetPoint" />
            <Array as="points">
              <mxPoint x="605" y="442" />
              <mxPoint x="605" y="572" />
            </Array>
          </mxGeometry>
        </mxCell>
        <mxCell id="jf6-zvFy1AMg0RBCMX0a-36" value="Акты&lt;br&gt;выполненных&lt;br&gt;работ" style="edgeLabel;html=1;align=center;verticalAlign=middle;resizable=0;points=[];fontSize=12;fontFamily=Helvetica;fontColor=default;" parent="jf6-zvFy1AMg0RBCMX0a-19" vertex="1" connectable="0">
          <mxGeometry x="-0.3578" y="4" relative="1" as="geometry">
            <mxPoint x="46" y="-18" as="offset" />
          </mxGeometry>
        </mxCell>
        <mxCell id="jf6-zvFy1AMg0RBCMX0a-22" value="Заказчик" style="rounded=0;whiteSpace=wrap;html=1;shadow=1;strokeWidth=1;glass=0;sketch=0;" parent="1" vertex="1">
          <mxGeometry x="675" y="252" width="120" height="50" as="geometry" />
        </mxCell>
        <mxCell id="jf6-zvFy1AMg0RBCMX0a-24" value="" style="endArrow=classic;html=1;rounded=0;shadow=0;entryX=1;entryY=0;entryDx=0;entryDy=0;exitX=0;exitY=0.5;exitDx=0;exitDy=0;" parent="1" source="jf6-zvFy1AMg0RBCMX0a-22" target="jf6-zvFy1AMg0RBCMX0a-12" edge="1">
          <mxGeometry width="50" height="50" relative="1" as="geometry">
            <mxPoint x="635" y="277" as="sourcePoint" />
            <mxPoint x="575" y="272" as="targetPoint" />
          </mxGeometry>
        </mxCell>
        <mxCell id="jf6-zvFy1AMg0RBCMX0a-25" value="Список исправлений" style="edgeLabel;html=1;align=center;verticalAlign=middle;resizable=0;points=[];" parent="jf6-zvFy1AMg0RBCMX0a-24" vertex="1" connectable="0">
          <mxGeometry x="-0.3491" y="-3" relative="1" as="geometry">
            <mxPoint x="10" y="-12" as="offset" />
          </mxGeometry>
        </mxCell>
        <mxCell id="jf6-zvFy1AMg0RBCMX0a-26" value="" style="endArrow=classic;html=1;rounded=0;shadow=0;entryX=0;entryY=0.5;entryDx=0;entryDy=0;" parent="1" target="jf6-zvFy1AMg0RBCMX0a-14" edge="1">
          <mxGeometry width="50" height="50" relative="1" as="geometry">
            <mxPoint x="215" y="442" as="sourcePoint" />
            <mxPoint x="475" y="562" as="targetPoint" />
          </mxGeometry>
        </mxCell>
        <mxCell id="jf6-zvFy1AMg0RBCMX0a-27" value="Прайс-листы на материал" style="edgeLabel;html=1;align=center;verticalAlign=middle;resizable=0;points=[];" parent="jf6-zvFy1AMg0RBCMX0a-26" vertex="1" connectable="0">
          <mxGeometry x="0.1933" y="-4" relative="1" as="geometry">
            <mxPoint x="-81" y="-14" as="offset" />
          </mxGeometry>
        </mxCell>
        <mxCell id="jf6-zvFy1AMg0RBCMX0a-28" value="" style="endArrow=classic;html=1;rounded=0;shadow=0;exitX=1;exitY=0;exitDx=0;exitDy=0;entryX=0;entryY=0.75;entryDx=0;entryDy=0;" parent="1" source="jf6-zvFy1AMg0RBCMX0a-14" target="jf6-zvFy1AMg0RBCMX0a-22" edge="1">
          <mxGeometry width="50" height="50" relative="1" as="geometry">
            <mxPoint x="645" y="452" as="sourcePoint" />
            <mxPoint x="695" y="402" as="targetPoint" />
            <Array as="points">
              <mxPoint x="645" y="407" />
              <mxPoint x="645" y="290" />
            </Array>
          </mxGeometry>
        </mxCell>
        <mxCell id="jf6-zvFy1AMg0RBCMX0a-31" value="" style="endArrow=classic;html=1;rounded=0;shadow=0;fontFamily=Helvetica;fontSize=12;fontColor=default;exitX=1;exitY=0.5;exitDx=0;exitDy=0;entryX=0;entryY=0.5;entryDx=0;entryDy=0;" parent="1" source="jf6-zvFy1AMg0RBCMX0a-14" target="jf6-zvFy1AMg0RBCMX0a-33" edge="1">
          <mxGeometry width="50" height="50" relative="1" as="geometry">
            <mxPoint x="485" y="612" as="sourcePoint" />
            <mxPoint x="641" y="459.5" as="targetPoint" />
          </mxGeometry>
        </mxCell>
        <mxCell id="jf6-zvFy1AMg0RBCMX0a-34" value="" style="endArrow=classic;html=1;rounded=0;shadow=0;fontFamily=Helvetica;fontSize=12;fontColor=default;entryX=0;entryY=0.25;entryDx=0;entryDy=0;exitX=1;exitY=0;exitDx=0;exitDy=0;" parent="1" source="jf6-zvFy1AMg0RBCMX0a-14" target="jf6-zvFy1AMg0RBCMX0a-33" edge="1">
          <mxGeometry width="50" height="50" relative="1" as="geometry">
            <mxPoint x="455" y="362" as="sourcePoint" />
            <mxPoint x="505" y="312" as="targetPoint" />
            <Array as="points">
              <mxPoint x="645" y="407" />
              <mxPoint x="645" y="427" />
            </Array>
          </mxGeometry>
        </mxCell>
        <mxCell id="jf6-zvFy1AMg0RBCMX0a-35" value="Чеки на&lt;br&gt;материалы" style="edgeLabel;html=1;align=center;verticalAlign=middle;resizable=0;points=[];fontSize=12;fontFamily=Helvetica;fontColor=default;" parent="jf6-zvFy1AMg0RBCMX0a-34" vertex="1" connectable="0">
          <mxGeometry x="-0.6787" relative="1" as="geometry">
            <mxPoint x="87" y="-5" as="offset" />
          </mxGeometry>
        </mxCell>
        <mxCell id="jf6-zvFy1AMg0RBCMX0a-42" value="" style="group" parent="1" vertex="1" connectable="0">
          <mxGeometry x="725" y="412" width="120" height="60" as="geometry" />
        </mxCell>
        <mxCell id="jf6-zvFy1AMg0RBCMX0a-33" value="Документация" style="rounded=0;whiteSpace=nowrap;html=1;shadow=1;fontFamily=Helvetica;fontSize=12;fontColor=default;strokeColor=none;fillColor=none;gradientColor=none;glass=0;sketch=0;strokeWidth=1;perimeterSpacing=0;" parent="jf6-zvFy1AMg0RBCMX0a-42" vertex="1">
          <mxGeometry width="120" height="60" as="geometry" />
        </mxCell>
        <mxCell id="jf6-zvFy1AMg0RBCMX0a-38" value="" style="endArrow=none;html=1;rounded=0;shadow=0;fontFamily=Helvetica;fontSize=12;fontColor=default;entryX=1;entryY=1;entryDx=0;entryDy=0;exitX=0;exitY=1;exitDx=0;exitDy=0;strokeWidth=1;" parent="jf6-zvFy1AMg0RBCMX0a-42" source="jf6-zvFy1AMg0RBCMX0a-33" target="jf6-zvFy1AMg0RBCMX0a-33" edge="1">
          <mxGeometry width="50" height="50" relative="1" as="geometry">
            <mxPoint x="-190" y="120" as="sourcePoint" />
            <mxPoint x="-140" y="70" as="targetPoint" />
          </mxGeometry>
        </mxCell>
        <mxCell id="jf6-zvFy1AMg0RBCMX0a-39" value="" style="endArrow=none;html=1;rounded=0;shadow=0;fontFamily=Helvetica;fontSize=12;fontColor=default;exitX=0;exitY=0;exitDx=0;exitDy=0;entryX=1;entryY=0;entryDx=0;entryDy=0;strokeWidth=1;" parent="jf6-zvFy1AMg0RBCMX0a-42" source="jf6-zvFy1AMg0RBCMX0a-33" target="jf6-zvFy1AMg0RBCMX0a-33" edge="1">
          <mxGeometry width="50" height="50" relative="1" as="geometry">
            <mxPoint y="50" as="sourcePoint" />
            <mxPoint x="120" y="50" as="targetPoint" />
            <Array as="points">
              <mxPoint x="60" />
            </Array>
          </mxGeometry>
        </mxCell>
        <mxCell id="jf6-zvFy1AMg0RBCMX0a-47" value="" style="endArrow=classic;html=1;rounded=0;shadow=0;fontFamily=Helvetica;fontSize=12;fontColor=default;strokeWidth=1;exitX=1;exitY=0.5;exitDx=0;exitDy=0;" parent="1" source="jf6-zvFy1AMg0RBCMX0a-15" edge="1">
          <mxGeometry width="50" height="50" relative="1" as="geometry">
            <mxPoint x="665" y="772" as="sourcePoint" />
            <mxPoint x="885" y="572" as="targetPoint" />
          </mxGeometry>
        </mxCell>
        <mxCell id="jf6-zvFy1AMg0RBCMX0a-48" value="Акт приемки" style="edgeLabel;html=1;align=center;verticalAlign=middle;resizable=0;points=[];fontSize=12;fontFamily=Helvetica;fontColor=default;" parent="jf6-zvFy1AMg0RBCMX0a-47" vertex="1" connectable="0">
          <mxGeometry x="-0.5929" y="-1" relative="1" as="geometry">
            <mxPoint x="48" y="-13" as="offset" />
          </mxGeometry>
        </mxCell>
        <mxCell id="jf6-zvFy1AMg0RBCMX0a-49" value="Закупка материалов" style="ellipse;whiteSpace=wrap;html=1;aspect=fixed;shadow=1;" parent="1" vertex="1">
          <mxGeometry x="293" y="1059" width="100" height="100" as="geometry" />
        </mxCell>
        <mxCell id="jf6-zvFy1AMg0RBCMX0a-52" value="Строительство здания" style="ellipse;whiteSpace=wrap;html=1;aspect=fixed;shadow=1;" parent="1" vertex="1">
          <mxGeometry x="523" y="1189" width="100" height="100" as="geometry" />
        </mxCell>
        <mxCell id="jf6-zvFy1AMg0RBCMX0a-53" value="Контроль качества" style="ellipse;whiteSpace=wrap;html=1;aspect=fixed;shadow=1;" parent="1" vertex="1">
          <mxGeometry x="703" y="1329" width="100" height="100" as="geometry" />
        </mxCell>
        <mxCell id="jf6-zvFy1AMg0RBCMX0a-54" value="" style="endArrow=classic;html=1;rounded=0;shadow=0;exitX=1;exitY=1;exitDx=0;exitDy=0;entryX=0.5;entryY=0;entryDx=0;entryDy=0;" parent="1" source="jf6-zvFy1AMg0RBCMX0a-49" target="jf6-zvFy1AMg0RBCMX0a-52" edge="1">
          <mxGeometry width="50" height="50" relative="1" as="geometry">
            <mxPoint x="323" y="1539" as="sourcePoint" />
            <mxPoint x="373" y="1489" as="targetPoint" />
            <Array as="points">
              <mxPoint x="493" y="1144" />
              <mxPoint x="573" y="1144" />
            </Array>
          </mxGeometry>
        </mxCell>
        <mxCell id="jf6-zvFy1AMg0RBCMX0a-55" value="Список купленных материалов" style="edgeLabel;html=1;align=center;verticalAlign=middle;resizable=0;points=[];" parent="jf6-zvFy1AMg0RBCMX0a-54" vertex="1" connectable="0">
          <mxGeometry x="-0.4751" y="1" relative="1" as="geometry">
            <mxPoint x="21" y="16" as="offset" />
          </mxGeometry>
        </mxCell>
        <mxCell id="jf6-zvFy1AMg0RBCMX0a-56" value="" style="endArrow=classic;html=1;rounded=0;shadow=0;exitX=1;exitY=0.5;exitDx=0;exitDy=0;entryX=0.5;entryY=0;entryDx=0;entryDy=0;" parent="1" source="jf6-zvFy1AMg0RBCMX0a-52" target="jf6-zvFy1AMg0RBCMX0a-53" edge="1">
          <mxGeometry width="50" height="50" relative="1" as="geometry">
            <mxPoint x="603" y="1439" as="sourcePoint" />
            <mxPoint x="653" y="1389" as="targetPoint" />
            <Array as="points">
              <mxPoint x="643" y="1239" />
              <mxPoint x="643" y="1309" />
              <mxPoint x="753" y="1309" />
            </Array>
          </mxGeometry>
        </mxCell>
        <mxCell id="jf6-zvFy1AMg0RBCMX0a-64" value="" style="endArrow=classic;html=1;rounded=0;shadow=0;fontFamily=Helvetica;fontSize=12;fontColor=default;exitX=1;exitY=0.5;exitDx=0;exitDy=0;entryX=0;entryY=0.5;entryDx=0;entryDy=0;" parent="1" source="jf6-zvFy1AMg0RBCMX0a-52" target="jf6-zvFy1AMg0RBCMX0a-68" edge="1">
          <mxGeometry width="50" height="50" relative="1" as="geometry">
            <mxPoint x="523" y="1409" as="sourcePoint" />
            <mxPoint x="679" y="1256.5" as="targetPoint" />
          </mxGeometry>
        </mxCell>
        <mxCell id="jf6-zvFy1AMg0RBCMX0a-78" value="Отчет по&lt;br&gt;строительству&lt;br&gt;здания" style="edgeLabel;html=1;align=center;verticalAlign=middle;resizable=0;points=[];fontSize=12;fontFamily=Helvetica;fontColor=default;" parent="jf6-zvFy1AMg0RBCMX0a-64" vertex="1" connectable="0">
          <mxGeometry x="-0.381" y="4" relative="1" as="geometry">
            <mxPoint x="27" y="34" as="offset" />
          </mxGeometry>
        </mxCell>
        <mxCell id="jf6-zvFy1AMg0RBCMX0a-67" value="" style="group" parent="1" vertex="1" connectable="0">
          <mxGeometry x="763" y="1209" width="120" height="60" as="geometry" />
        </mxCell>
        <mxCell id="jf6-zvFy1AMg0RBCMX0a-68" value="Документация" style="rounded=0;whiteSpace=nowrap;html=1;shadow=1;fontFamily=Helvetica;fontSize=12;glass=0;sketch=0;strokeWidth=1;perimeterSpacing=0;fillColor=default;strokeColor=none;" parent="jf6-zvFy1AMg0RBCMX0a-67" vertex="1">
          <mxGeometry width="120" height="60" as="geometry" />
        </mxCell>
        <mxCell id="jf6-zvFy1AMg0RBCMX0a-69" value="" style="endArrow=none;html=1;rounded=0;shadow=0;fontFamily=Helvetica;fontSize=12;fontColor=default;entryX=1;entryY=1;entryDx=0;entryDy=0;exitX=0;exitY=1;exitDx=0;exitDy=0;strokeWidth=1;" parent="jf6-zvFy1AMg0RBCMX0a-67" source="jf6-zvFy1AMg0RBCMX0a-68" target="jf6-zvFy1AMg0RBCMX0a-68" edge="1">
          <mxGeometry width="50" height="50" relative="1" as="geometry">
            <mxPoint x="-190" y="120" as="sourcePoint" />
            <mxPoint x="-140" y="70" as="targetPoint" />
          </mxGeometry>
        </mxCell>
        <mxCell id="jf6-zvFy1AMg0RBCMX0a-70" value="" style="endArrow=none;html=1;rounded=0;shadow=0;fontFamily=Helvetica;fontSize=12;fontColor=default;exitX=0;exitY=0;exitDx=0;exitDy=0;entryX=1;entryY=0;entryDx=0;entryDy=0;strokeWidth=1;" parent="jf6-zvFy1AMg0RBCMX0a-67" source="jf6-zvFy1AMg0RBCMX0a-68" target="jf6-zvFy1AMg0RBCMX0a-68" edge="1">
          <mxGeometry width="50" height="50" relative="1" as="geometry">
            <mxPoint y="50" as="sourcePoint" />
            <mxPoint x="120" y="50" as="targetPoint" />
            <Array as="points">
              <mxPoint x="60" />
            </Array>
          </mxGeometry>
        </mxCell>
        <mxCell id="jf6-zvFy1AMg0RBCMX0a-71" value="" style="endArrow=classic;html=1;rounded=0;shadow=0;fontFamily=Helvetica;fontSize=12;fontColor=default;strokeWidth=1;exitX=1;exitY=0.5;exitDx=0;exitDy=0;" parent="1" source="jf6-zvFy1AMg0RBCMX0a-53" edge="1">
          <mxGeometry width="50" height="50" relative="1" as="geometry">
            <mxPoint x="703" y="1569" as="sourcePoint" />
            <mxPoint x="923" y="1379" as="targetPoint" />
          </mxGeometry>
        </mxCell>
        <mxCell id="jf6-zvFy1AMg0RBCMX0a-72" value="Акты&lt;br&gt;выполненных&lt;br&gt;работ" style="edgeLabel;html=1;align=center;verticalAlign=middle;resizable=0;points=[];fontSize=12;fontFamily=Helvetica;fontColor=default;" parent="jf6-zvFy1AMg0RBCMX0a-71" vertex="1" connectable="0">
          <mxGeometry x="-0.5929" y="-1" relative="1" as="geometry">
            <mxPoint x="46" y="-31" as="offset" />
          </mxGeometry>
        </mxCell>
        <mxCell id="jf6-zvFy1AMg0RBCMX0a-73" value="" style="endArrow=classic;html=1;rounded=0;shadow=0;fontFamily=Helvetica;fontSize=12;fontColor=default;strokeWidth=1;entryX=0;entryY=0.5;entryDx=0;entryDy=0;" parent="1" target="jf6-zvFy1AMg0RBCMX0a-49" edge="1">
          <mxGeometry width="50" height="50" relative="1" as="geometry">
            <mxPoint x="203" y="1109" as="sourcePoint" />
            <mxPoint x="233" y="1229" as="targetPoint" />
          </mxGeometry>
        </mxCell>
        <mxCell id="jf6-zvFy1AMg0RBCMX0a-74" value="Прайс-лист&lt;br&gt;на материалы" style="edgeLabel;html=1;align=center;verticalAlign=middle;resizable=0;points=[];fontSize=12;fontFamily=Helvetica;fontColor=default;" parent="jf6-zvFy1AMg0RBCMX0a-73" vertex="1" connectable="0">
          <mxGeometry x="0.6148" y="2" relative="1" as="geometry">
            <mxPoint x="-32" y="-18" as="offset" />
          </mxGeometry>
        </mxCell>
        <mxCell id="jf6-zvFy1AMg0RBCMX0a-75" value="" style="endArrow=classic;html=1;rounded=0;shadow=0;fontFamily=Helvetica;fontSize=12;fontColor=default;strokeWidth=1;entryX=0;entryY=0.5;entryDx=0;entryDy=0;" parent="1" target="jf6-zvFy1AMg0RBCMX0a-52" edge="1">
          <mxGeometry width="50" height="50" relative="1" as="geometry">
            <mxPoint x="203" y="1239" as="sourcePoint" />
            <mxPoint x="333" y="1259" as="targetPoint" />
          </mxGeometry>
        </mxCell>
        <mxCell id="jf6-zvFy1AMg0RBCMX0a-77" value="Утвержденный проект" style="edgeLabel;html=1;align=center;verticalAlign=middle;resizable=0;points=[];fontSize=12;fontFamily=Helvetica;fontColor=default;rotation=0;" parent="jf6-zvFy1AMg0RBCMX0a-75" vertex="1" connectable="0">
          <mxGeometry x="-0.4125" y="3" relative="1" as="geometry">
            <mxPoint x="-35" y="13" as="offset" />
          </mxGeometry>
        </mxCell>
        <mxCell id="jf6-zvFy1AMg0RBCMX0a-76" value="" style="endArrow=classic;html=1;rounded=0;shadow=0;fontFamily=Helvetica;fontSize=12;fontColor=default;strokeWidth=1;entryX=0;entryY=1;entryDx=0;entryDy=0;" parent="1" target="jf6-zvFy1AMg0RBCMX0a-49" edge="1">
          <mxGeometry width="50" height="50" relative="1" as="geometry">
            <mxPoint x="203" y="1239" as="sourcePoint" />
            <mxPoint x="383" y="1189" as="targetPoint" />
            <Array as="points">
              <mxPoint x="263" y="1239" />
              <mxPoint x="263" y="1144" />
            </Array>
          </mxGeometry>
        </mxCell>
        <mxCell id="jf6-zvFy1AMg0RBCMX0a-79" value="" style="group;opacity=0;fillColor=none;fontColor=#ffffff;strokeColor=#2D7600;" parent="1" vertex="1" connectable="0">
          <mxGeometry x="483" y="1349" width="120" height="60" as="geometry" />
        </mxCell>
        <mxCell id="jf6-zvFy1AMg0RBCMX0a-80" value="Строительные нормы" style="rounded=0;whiteSpace=nowrap;html=1;shadow=1;fontFamily=Helvetica;fontSize=12;fontColor=default;strokeColor=none;fillColor=none;gradientColor=none;glass=0;sketch=0;strokeWidth=1;perimeterSpacing=0;" parent="jf6-zvFy1AMg0RBCMX0a-79" vertex="1">
          <mxGeometry width="120" height="60" as="geometry" />
        </mxCell>
        <mxCell id="jf6-zvFy1AMg0RBCMX0a-81" value="" style="endArrow=none;html=1;rounded=0;shadow=0;fontFamily=Helvetica;fontSize=12;fontColor=default;entryX=1;entryY=1;entryDx=0;entryDy=0;exitX=0;exitY=1;exitDx=0;exitDy=0;strokeWidth=1;" parent="jf6-zvFy1AMg0RBCMX0a-79" source="jf6-zvFy1AMg0RBCMX0a-80" target="jf6-zvFy1AMg0RBCMX0a-80" edge="1">
          <mxGeometry width="50" height="50" relative="1" as="geometry">
            <mxPoint x="-190" y="120" as="sourcePoint" />
            <mxPoint x="-140" y="70" as="targetPoint" />
          </mxGeometry>
        </mxCell>
        <mxCell id="jf6-zvFy1AMg0RBCMX0a-82" value="" style="endArrow=none;html=1;rounded=0;shadow=0;fontFamily=Helvetica;fontSize=12;fontColor=default;exitX=0;exitY=0;exitDx=0;exitDy=0;entryX=1;entryY=0;entryDx=0;entryDy=0;strokeWidth=1;" parent="jf6-zvFy1AMg0RBCMX0a-79" source="jf6-zvFy1AMg0RBCMX0a-80" target="jf6-zvFy1AMg0RBCMX0a-80" edge="1">
          <mxGeometry width="50" height="50" relative="1" as="geometry">
            <mxPoint y="50" as="sourcePoint" />
            <mxPoint x="120" y="50" as="targetPoint" />
            <Array as="points">
              <mxPoint x="60" />
            </Array>
          </mxGeometry>
        </mxCell>
        <mxCell id="jf6-zvFy1AMg0RBCMX0a-83" value="" style="endArrow=classic;html=1;rounded=0;shadow=0;fontFamily=Helvetica;fontSize=12;fontColor=default;strokeWidth=1;exitX=1;exitY=0.5;exitDx=0;exitDy=0;entryX=0;entryY=0.5;entryDx=0;entryDy=0;" parent="1" source="jf6-zvFy1AMg0RBCMX0a-80" target="jf6-zvFy1AMg0RBCMX0a-53" edge="1">
          <mxGeometry width="50" height="50" relative="1" as="geometry">
            <mxPoint x="673" y="1459" as="sourcePoint" />
            <mxPoint x="723" y="1409" as="targetPoint" />
          </mxGeometry>
        </mxCell>
        <mxCell id="jf6-zvFy1AMg0RBCMX0a-84" value="Список&lt;br&gt;строительных&lt;br&gt;норм" style="edgeLabel;html=1;align=center;verticalAlign=middle;resizable=0;points=[];fontSize=12;fontFamily=Helvetica;fontColor=default;" parent="jf6-zvFy1AMg0RBCMX0a-83" vertex="1" connectable="0">
          <mxGeometry x="-0.2378" relative="1" as="geometry">
            <mxPoint x="12" y="-30" as="offset" />
          </mxGeometry>
        </mxCell>
        <mxCell id="jf6-zvFy1AMg0RBCMX0a-85" value="" style="endArrow=classic;html=1;rounded=0;shadow=0;fontFamily=Helvetica;fontSize=12;fontColor=default;strokeWidth=1;exitX=1;exitY=0.5;exitDx=0;exitDy=0;" parent="1" source="jf6-zvFy1AMg0RBCMX0a-49" edge="1">
          <mxGeometry width="50" height="50" relative="1" as="geometry">
            <mxPoint x="553" y="1119" as="sourcePoint" />
            <mxPoint x="923" y="1109" as="targetPoint" />
          </mxGeometry>
        </mxCell>
        <mxCell id="jf6-zvFy1AMg0RBCMX0a-86" value="Чеки на материалы" style="edgeLabel;html=1;align=center;verticalAlign=middle;resizable=0;points=[];fontSize=12;fontFamily=Helvetica;fontColor=default;" parent="jf6-zvFy1AMg0RBCMX0a-85" vertex="1" connectable="0">
          <mxGeometry x="0.7245" y="-2" relative="1" as="geometry">
            <mxPoint x="3" y="-12" as="offset" />
          </mxGeometry>
        </mxCell>
      </root>
    </mxGraphModel>
  </diagram>
</mxfile>
